<svg id="Layer_1" data-name="Layer 1" xmlns="http://www.w3.org/2000/svg" xmlns:xlink="http://www.w3.org/1999/xlink" viewBox="0 0 235 36.6835"><defs><style>.cls-1{fill:url(#New_Gradient_Swatch_1);}.cls-2{fill:#0072ce;}.cls-3{fill:url(#New_Gradient_Swatch_1-2);}</style><linearGradient id="New_Gradient_Swatch_1" x1="18.2045" y1="2.4974" x2="13.0488" y2="7.484" gradientUnits="userSpaceOnUse"><stop offset="0" stop-color="#00579f"/><stop offset="1" stop-color="#0084f1"/></linearGradient><linearGradient id="New_Gradient_Swatch_1-2" x1="35.3882" y1="11.4295" x2="33.1908" y2="13.627" xlink:href="#New_Gradient_Swatch_1"/></defs><g id="RentRelief"><polygon class="cls-1" points="13.63 3.836 3.75 12.625 3.75 17.703 7.25 14.203 7.25 14.196 7.308 14.145 13.336 8.782 13.458 8.673 13.572 8.79 14.595 9.841 17.1 7.397 13.63 3.836"/><polygon points="5.92 22.864 6.148 22.636 5.643 22.587 5.92 22.864"/><polygon class="cls-2" points="7.25 25.604 7.25 25.597 3.75 29.097 3.75 29.105 16.367 29.105 16.367 25.604 7.25 25.604"/><polygon class="cls-2" points="3.75 17.703 3.75 29.097 7.25 25.597 7.25 14.273 7.25 14.203 3.75 17.703"/><polygon class="cls-3" points="35.515 12.641 25.945 3.869 16.375 12.641 16.375 17.666 19.893 14.148 19.901 14.157 25.945 8.617 32.015 14.181 32.015 25.433 32.015 25.599 32.019 25.604 28.518 29.105 35.515 29.105 35.515 12.641"/><polygon class="cls-2" points="32.015 25.599 32.015 25.604 31.843 25.604 23.553 25.604 23.553 29.105 28.518 29.105 32.019 25.604 32.015 25.599"/><polygon class="cls-2" points="19.893 14.148 16.375 17.666 16.367 25.604 16.367 25.604 16.367 29.105 19.875 29.105 19.875 14.256 19.875 14.181 19.901 14.157 19.893 14.148"/><path d="M51.0881,9.0161A6.8137,6.8137,0,0,1,55.506,10.26a4.3927,4.3927,0,0,1,1.5126,3.5989,4.682,4.682,0,0,1-.395,1.9427,4.2964,4.2964,0,0,1-1.1176,1.5071,5.3906,5.3906,0,0,1-1.7573.9923,7.7943,7.7943,0,0,1-2.3141.4119l5.5119,7.0427H53.599l-5.3325-7.0427h-1.363v7.0427H44.2011V9.0161Zm-4.1846,2.5351v4.7105h4.1131a3.9875,3.9875,0,0,0,2.4152-.5919,2.1311,2.1311,0,0,0,.7766-1.8112,1.9876,1.9876,0,0,0-.7947-1.7513,4.2,4.2,0,0,0-2.3971-.5561Z"/><path d="M64.7543,14.0021a5.4212,5.4212,0,0,1,2.194.4362A4.9056,4.9056,0,0,1,68.6578,15.67,5.7692,5.7692,0,0,1,69.77,17.5713a7.1414,7.1414,0,0,1,.4,2.4449c0,.16-.0042.3186-.0121.4786s-.02.31-.0357.4543h-8.465A3.7031,3.7031,0,0,0,62.1,22.2757a3.1213,3.1213,0,0,0,.7772.9026,3.0706,3.0706,0,0,0,1.0165.521,4.0861,4.0861,0,0,0,1.1715.1672,4.9883,4.9883,0,0,0,1.7277-.3174,5.5725,5.5725,0,0,0,1.584-.89L69.62,24.44a6.2392,6.2392,0,0,1-2.23,1.2564,8.4831,8.4831,0,0,1-2.4813.3586,6.3177,6.3177,0,0,1-2.3673-.4313,5.3489,5.3489,0,0,1-1.8531-1.2188,5.4933,5.4933,0,0,1-1.2073-1.9009,6.8048,6.8048,0,0,1-.4307-2.4752,6.9025,6.9025,0,0,1,.4186-2.4509A5.6082,5.6082,0,0,1,60.6411,15.67a5.2144,5.2144,0,0,1,1.8-1.2315A5.9536,5.9536,0,0,1,64.7543,14.0021Zm-.0479,2.2238a3.2452,3.2452,0,0,0-1.19.2036,2.5928,2.5928,0,0,0-.8966.58,3.0547,3.0547,0,0,0-.616.8965,4.2734,4.2734,0,0,0-.3344,1.1425h5.942a3.5734,3.5734,0,0,0-.9565-2.08A2.66,2.66,0,0,0,64.7064,16.2259Z"/><path d="M79.2691,14.0021a5.0836,5.0836,0,0,1,1.8712.335,4.396,4.396,0,0,1,1.4769.9384A4.1878,4.1878,0,0,1,83.58,16.716a4.8394,4.8394,0,0,1,.34,1.8415v7.1978h-2.511V19.3826a3.2187,3.2187,0,0,0-.699-2.2244,2.5134,2.5134,0,0,0-1.9669-.7766,3.3228,3.3228,0,0,0-1.148.1963,2.7058,2.7058,0,0,0-.9383.58,2.8035,2.8035,0,0,0-.64.9511,3.3048,3.3048,0,0,0-.2393,1.2975v6.3485H73.2671V14.3008h2.4867V15.7a3.6972,3.6972,0,0,1,.7711-.8311,3.8354,3.8354,0,0,1,.8911-.52,4.3434,4.3434,0,0,1,.9384-.2689A5.6675,5.6675,0,0,1,79.2691,14.0021Z"/><path d="M95.411,16.573H91.0228v4.9855a2.9482,2.9482,0,0,0,.1436.98,1.82,1.82,0,0,0,.3883.664,1.4809,1.4809,0,0,0,.5742.3767,2.0567,2.0567,0,0,0,.7112.12,3.3635,3.3635,0,0,0,1.19-.2278,6.1846,6.1846,0,0,0,1.1177-.55l.9928,1.9966a7.8292,7.8292,0,0,1-1.56.8008,5.373,5.373,0,0,1-1.9549.3356,4.1,4.1,0,0,1-3.0312-1.0819,4.5924,4.5924,0,0,1-1.0819-3.3656V16.573H86.2281V14.3008h2.2838V10.834h2.5109v3.4668H95.411Z"/><path d="M112.1126,9.0161a6.8133,6.8133,0,0,1,4.4185,1.2436,4.3924,4.3924,0,0,1,1.512,3.5989,4.691,4.691,0,0,1-.3938,1.9427,4.298,4.298,0,0,1-1.1182,1.5071,5.3936,5.3936,0,0,1-1.7579.9923,7.7826,7.7826,0,0,1-2.3129.4119l5.5113,7.0427h-3.3475l-5.3332-7.0427H107.928v7.0427h-2.7018V9.0161Zm-4.1846,2.5351v4.7105h4.1131a3.9871,3.9871,0,0,0,2.4158-.5919,2.1327,2.1327,0,0,0,.7766-1.8112,1.989,1.989,0,0,0-.7947-1.7513,4.2025,4.2025,0,0,0-2.3977-.5561Z"/><path d="M125.78,14.0021a5.4237,5.4237,0,0,1,2.1941.4362,4.9006,4.9006,0,0,1,1.7094,1.2315,5.79,5.79,0,0,1,1.1122,1.9015,7.1415,7.1415,0,0,1,.4,2.4449c0,.16-.0036.3186-.0109.4786s-.0206.31-.0363.4543h-8.465a3.7031,3.7031,0,0,0,.4422,1.3266,3.114,3.114,0,0,0,.7778.9026,3.059,3.059,0,0,0,1.0153.521,4.0979,4.0979,0,0,0,1.1727.1672,4.9958,4.9958,0,0,0,1.7277-.3174,5.5957,5.5957,0,0,0,1.5835-.89l1.2442,1.7809a6.2415,6.2415,0,0,1-2.23,1.2564,8.486,8.486,0,0,1-2.4813.3586,6.3177,6.3177,0,0,1-2.3673-.4313,5.34,5.34,0,0,1-1.8524-1.2188,5.4918,5.4918,0,0,1-1.2079-1.9009,6.8027,6.8027,0,0,1-.43-2.4752,6.9159,6.9159,0,0,1,.4179-2.4509,5.6175,5.6175,0,0,1,1.1716-1.9076,5.2289,5.2289,0,0,1,1.7991-1.2315A5.9566,5.9566,0,0,1,125.78,14.0021Zm-.0485,2.2238a3.2413,3.2413,0,0,0-1.1885.2036,2.5979,2.5979,0,0,0-.8978.58,3.0761,3.0761,0,0,0-.6154.8965,4.2336,4.2336,0,0,0-.3344,1.1425h5.9426a3.57,3.57,0,0,0-.9571-2.08A2.6605,2.6605,0,0,0,125.7315,16.2259Z"/><path d="M136.8025,25.7553H134.291V8.5381h2.5115Z"/><path d="M141.9685,8.5739a1.7484,1.7484,0,0,1,.693.1375,1.7871,1.7871,0,0,1,.939,2.3255,1.698,1.698,0,0,1-.3768.5561,1.7428,1.7428,0,0,1-.5622.3647,1.8963,1.8963,0,0,1-1.3872,0,1.6728,1.6728,0,0,1-.5549-.3647,1.65,1.65,0,0,1-.3647-.5561,1.8867,1.8867,0,0,1,0-1.3866,1.6925,1.6925,0,0,1,.92-.9389A1.7592,1.7592,0,0,1,141.9685,8.5739Zm1.2673,17.1814h-2.5115V14.3008h2.5115Z"/><path d="M152.0352,14.0021a5.4237,5.4237,0,0,1,2.1941.4362,4.9006,4.9006,0,0,1,1.7094,1.2315,5.7882,5.7882,0,0,1,1.1122,1.9015,7.1415,7.1415,0,0,1,.4,2.4449c0,.16-.0036.3186-.0109.4786s-.0206.31-.0363.4543h-8.465a3.7031,3.7031,0,0,0,.4422,1.3266,3.1155,3.1155,0,0,0,.7778.9026,3.059,3.059,0,0,0,1.0153.521,4.0979,4.0979,0,0,0,1.1727.1672,4.9958,4.9958,0,0,0,1.7277-.3174,5.5957,5.5957,0,0,0,1.5835-.89l1.2442,1.7809a6.2407,6.2407,0,0,1-2.23,1.2564,8.4858,8.4858,0,0,1-2.4812.3586,6.3182,6.3182,0,0,1-2.3674-.4313,5.34,5.34,0,0,1-1.8524-1.2188,5.4918,5.4918,0,0,1-1.2079-1.9009,6.8027,6.8027,0,0,1-.43-2.4752,6.9137,6.9137,0,0,1,.418-2.4509A5.6157,5.6157,0,0,1,147.922,15.67a5.2289,5.2289,0,0,1,1.7991-1.2315A5.9566,5.9566,0,0,1,152.0352,14.0021Zm-.0485,2.2238a3.2413,3.2413,0,0,0-1.1885.2036,2.5979,2.5979,0,0,0-.8978.58,3.078,3.078,0,0,0-.6154.8965,4.2336,4.2336,0,0,0-.3344,1.1425h5.9426a3.57,3.57,0,0,0-.9571-2.08A2.6605,2.6605,0,0,0,151.9867,16.2259Z"/><path d="M167.7827,16.573H163.861v9.1823H161.35V16.573h-2.2947V14.3008H161.35V12.3641a5.6945,5.6945,0,0,1,.2217-1.6143,3.5322,3.5322,0,0,1,.693-1.3091,3.3193,3.3193,0,0,1,1.1958-.879,4.2228,4.2228,0,0,1,1.7276-.3222,5.997,5.997,0,0,1,1.7822.2386,6.6608,6.6608,0,0,1,1.41.6222l-.8844,2.1038a5.3091,5.3091,0,0,0-1.0044-.43,3.7057,3.7057,0,0,0-1.1364-.1793,1.37,1.37,0,0,0-1.111.4543,1.9884,1.9884,0,0,0-.3828,1.3151v1.9367h3.9217Z"/><path id="Powered_by_Yardi" data-name="Powered by Yardi" d="M106.036,32.9141v1.12h-.3516v-2.8h1.0635a1.4274,1.4274,0,0,1,.4209.0576.8794.8794,0,0,1,.3115.1661.7009.7009,0,0,1,.1914.2646.9638.9638,0,0,1,0,.7031.7021.7021,0,0,1-.1914.2647.8955.8955,0,0,1-.3115.166,1.4241,1.4241,0,0,1-.4209.0576Zm0-1.3476v1.0156h.7041a.7507.7507,0,0,0,.4717-.126.5354.5354,0,0,0,0-.7637.7513.7513,0,0,0-.4717-.1259Zm3.999-.3741a1.5975,1.5975,0,0,1,.3984.0489,1.4759,1.4759,0,0,1,.3506.1386,1.3512,1.3512,0,0,1,.5117.5078,1.4369,1.4369,0,0,1,.14.3487,1.647,1.647,0,0,1,0,.7959,1.4113,1.4113,0,0,1-.14.3476,1.3274,1.3274,0,0,1-.2207.2891,1.35,1.35,0,0,1-.291.2187,1.4739,1.4739,0,0,1-.3506.14,1.6022,1.6022,0,0,1-.3984.0488,1.5378,1.5378,0,0,1-.581-.1074,1.3727,1.3727,0,0,1-.459-.2988,1.3505,1.3505,0,0,1-.3028-.4571,1.6123,1.6123,0,0,1,0-1.1572,1.3562,1.3562,0,0,1,.7618-.7568A1.5376,1.5376,0,0,1,110.035,31.1924Zm0,.3379a1.1259,1.1259,0,0,0-.43.08,1.0292,1.0292,0,0,0-.3428.2246,1.0143,1.0143,0,0,0-.2275.35,1.2741,1.2741,0,0,0,0,.8994,1.0219,1.0219,0,0,0,.2275.35,1.0466,1.0466,0,0,0,.3428.2247,1.1886,1.1886,0,0,0,.8574,0,1.04,1.04,0,0,0,.3438-.2247,1.0242,1.0242,0,0,0,.2285-.35,1.2741,1.2741,0,0,0,0-.8994,1.0095,1.0095,0,0,0-.5723-.5742A1.1226,1.1226,0,0,0,110.035,31.53Zm5.4287,2.5059h-.4355l-.75-2.3379-.75,2.3379h-.4346l-.8975-2.8018h.37l.75,2.4033.7656-2.4052h.4l.7676,2.4052.748-2.4033h.3623Zm3.794-.002H117.27v-2.8h1.9677v.33h-1.6162v.8936h1.5645v.332h-1.5645v.9141h1.6358Zm2.23-2.8a1.13,1.13,0,0,1,.7285.2051.7157.7157,0,0,1,.2519.5889.7741.7741,0,0,1-.0683.33.6857.6857,0,0,1-.1963.2519.9162.9162,0,0,1-.3086.16,1.3792,1.3792,0,0,1-.4053.0556h-.0215l.9854,1.208h-.4356l-.9619-1.208h-.3281v1.208h-.3516v-2.8Zm-.76.33v.9414h.7519a.7477.7477,0,0,0,.4659-.1211.4212.4212,0,0,0,.1562-.3564.4043.4043,0,0,0-.1582-.35.7871.7871,0,0,0-.4639-.1143Zm4.75,2.47H123.49v-2.8h1.9678v.33h-1.6163v.8936h1.5645v.332h-1.5645v.9141h1.6358Zm2.1865-2.8a1.8138,1.8138,0,0,1,.6133.0987,1.3234,1.3234,0,0,1,.4678.2822,1.2289,1.2289,0,0,1,.2978.4414,1.6342,1.6342,0,0,1,0,1.1553,1.2384,1.2384,0,0,1-.2978.4414,1.3249,1.3249,0,0,1-.4678.2822,1.8164,1.8164,0,0,1-.6133.0986h-1.0674v-2.8Zm-.7158.334V33.7h.7158a1.38,1.38,0,0,0,.4844-.0771.9322.9322,0,0,0,.3476-.2178.8964.8964,0,0,0,.211-.3369,1.3629,1.3629,0,0,0,0-.87.8848.8848,0,0,0-.211-.3359.929.929,0,0,0-.3476-.2168,1.38,1.38,0,0,0-.4844-.0772Zm5.793-.334a1.9052,1.9052,0,0,1,.4082.041.9571.9571,0,0,1,.3232.13.6291.6291,0,0,1,.2119.2295.7178.7178,0,0,1,.0762.3438.7418.7418,0,0,1-.0293.2119.5843.5843,0,0,1-.082.1758.5995.5995,0,0,1-.2891.2255.782.782,0,0,1,.1855.0967.628.628,0,0,1,.1456.1416.6477.6477,0,0,1,.0966.1885.7342.7342,0,0,1,.0352.2334.789.789,0,0,1-.0732.3525.6566.6566,0,0,1-.2061.2442.9147.9147,0,0,1-.3232.1406,1.8259,1.8259,0,0,1-.4239.0449h-1.14v-2.8Zm-.7325.33v.8877h.7217a1.6757,1.6757,0,0,0,.26-.0186.667.667,0,0,0,.2109-.0683.36.36,0,0,0,.1406-.1358.4426.4426,0,0,0,.0508-.2255.419.419,0,0,0-.0517-.2188.374.374,0,0,0-.1416-.1338.643.643,0,0,0-.2129-.0683,1.6848,1.6848,0,0,0-.26-.0186Zm0,1.2158v.9239h.7725a1.597,1.597,0,0,0,.2754-.0215.6187.6187,0,0,0,.2119-.0752.3645.3645,0,0,0,.1367-.1436.4818.4818,0,0,0,.0479-.2256.4647.4647,0,0,0-.0479-.2216.3722.3722,0,0,0-.1367-.1416.6164.6164,0,0,0-.2119-.0743,1.7091,1.7091,0,0,0-.2754-.0205Zm3.8711.09v1.164h-.3515V32.8663l-1.1035-1.6319h.4218l.8594,1.31.86-1.31h.41Zm3.8708,2.9183V33.1856l4.5217-3.6883V32.171Zm.8178-3.3265-.8178-.4574V29.4973l.8178.481Zm6.22.0469-1.0693-2.87h1.2424l.55,1.9189,1.29-1.9189h1.4469l-2.2726,2.88-.3675,1.736h-1.19Zm4.5375-2.87h1.2189l.755,4.6163h-1.21l-.11-.8258h-1.6262l-.4658.8258h-1.267Zm-.5112,2.894h1.0617l-.1808-1.6594h-.0079Zm3.7275-2.894h2.2648a1.96,1.96,0,0,1,1.0617.2281,1.0759,1.0759,0,0,1,.4248.9673,1.1411,1.1411,0,0,1-1.0539,1.29v.0078q.4719.1179.4717.7707,0,.1809-.0117.46t-.0119.405a1.1219,1.1219,0,0,0,.0708.4876h-1.211a1.3881,1.3881,0,0,1-.0393-.2595q0-.11.0157-.3736c.01-.1755.0158-.3187.0158-.4286q0-.6213-.5987-.6213h-.8035l-.35,1.683h-1.2048Zm.78,2.0446h.9587q.8094,0,.8093-.637,0-.4794-.65-.48h-.8856Zm3.9634-2.0446h1.73q2.0595,0,2.06,1.95a2.6691,2.6691,0,0,1-.66,1.8716,2.6389,2.6389,0,0,1-2.0437.7944h-2.067Zm.4471,3.5861h.7941a1.195,1.195,0,0,0,1.0615-.5427,1.7439,1.7439,0,0,0,.2831-.9909q0-1.0221-.9122-1.0222h-.6921Zm4.4491-3.5861h1.2049l-.9594,4.6163h-1.2129Z"/></g></svg>